<svg id="Layer_1" data-name="Layer 1" xmlns="http://www.w3.org/2000/svg" viewBox="0 0 836.36 933.63"><defs><style>.cls-1{fill:#231f20;}</style></defs><path class="cls-1" d="M782.24,309.57,650.36,441.45a243.24,243.24,0,0,1,11.45,74c0,134.55-109.08,243.63-243.63,243.63S174.54,650,174.54,515.45,283.62,271.81,418.18,271.81a243.19,243.19,0,0,1,74,11.45L624.06,151.38A416.18,416.18,0,0,0,418.18,97.27C187.22,97.27,0,284.49,0,515.45S187.22,933.63,418.18,933.63,836.36,746.4,836.36,515.45A416.18,416.18,0,0,0,782.24,309.57Z"/><rect class="cls-1" x="281.15" y="298.37" width="530.05" height="178.18" rx="89.09" transform="translate(-114 499.69) rotate(-45)"/><rect class="cls-1" x="288.18" width="260" height="194.55" rx="74.55"/><rect class="cls-1" x="83.88" y="495.45" width="160" height="40" rx="20"/><rect class="cls-1" x="338.18" y="742.09" width="160" height="40" rx="20" transform="translate(-343.91 1180.27) rotate(-90)"/><rect class="cls-1" x="338.18" y="253.41" width="160" height="40" rx="20" transform="translate(144.77 691.59) rotate(-90)"/></svg>