<svg id="Layer_1" data-name="Layer 1" xmlns="http://www.w3.org/2000/svg" viewBox="0 0 486.13 561.04"><defs><style>.cls-1{fill:#231f20;}</style></defs><path class="cls-1" d="M448.42,187.91,459,169.14a132.14,132.14,0,0,0-1.19-132.06L438.07,3.54A7.17,7.17,0,0,0,424.8,6.09l-6.28,41a77.09,77.09,0,0,1-37.48,55l-12.85,7.47a243.2,243.2,0,0,0-254.3,2.5l-17.16-10a77.11,77.11,0,0,1-37.48-55L53,6.09A7.17,7.17,0,0,0,39.7,3.54L20,37.08a132.14,132.14,0,0,0-1.2,132.06L33.37,195A242,242,0,0,0,0,318C0,452.22,108.82,561,243.06,561S486.13,452.22,486.13,318A241.93,241.93,0,0,0,448.42,187.91ZM340.63,254.24a150.54,150.54,0,0,1,4.18,36.4c0,36-11,65.11-24.51,65.11-12.48,0-22.79-24.8-24.31-56.87Zm-192.25,0L193,298.88c-1.52,32.07-11.83,56.87-24.31,56.87-13.54,0-24.51-29.15-24.51-65.11A150.54,150.54,0,0,1,148.38,254.24Zm249,192a14.33,14.33,0,0,1-19.78,13.27q-134.55-55.89-269.12,0A14.35,14.35,0,0,1,96.32,433.6q146.75-77.55,293.48,0a14.32,14.32,0,0,1,7.6,12.67Z"/></svg>