<svg id="Layer_1" data-name="Layer 1" xmlns="http://www.w3.org/2000/svg" viewBox="0 0 486.13 486.35"><defs><style>.cls-1{fill:#231f20;}</style></defs><path class="cls-1" d="M428.27,160.58c4.68-23.66,1.52-49.86-9.06-78.46a11.62,11.62,0,0,0-5.65-6c-5.62-2.88-11.71-1.23-12.59,3.39A157.89,157.89,0,0,1,386.83,122a243.09,243.09,0,0,0-289.3,1.29A157.28,157.28,0,0,1,82.72,79.51c-.87-4.62-7-6.27-12.58-3.39a11.58,11.58,0,0,0-5.65,6c-10.93,29.53-13.92,56.49-8.57,80.75A242.08,242.08,0,0,0,0,318C0,452.22,108.82,561,243.06,561S486.13,452.22,486.13,318A242.08,242.08,0,0,0,428.27,160.58Zm-108.61,65c13.54,0,24.51,29.14,24.51,65.1s-11,65.11-24.51,65.11-24.51-29.15-24.51-65.11S306.12,225.54,319.66,225.54Zm-156.26,0c13.54,0,24.51,29.14,24.51,65.1s-11,65.11-24.51,65.11-24.51-29.15-24.51-65.11S149.87,225.54,163.4,225.54ZM413.88,393.82q-170.82,203.93-341.63,0a7.4,7.4,0,0,1,11.16-9.73q159.66,174.68,319.31,0a7.4,7.4,0,0,1,11.16,9.73Z" transform="translate(0 -74.69)"/></svg>