<svg id="Layer_1" data-name="Layer 1" xmlns="http://www.w3.org/2000/svg" viewBox="0 0 486.13 486.13"><defs><style>.cls-1{fill:#231f20;}</style></defs><path class="cls-1" d="M243.06,74.91C108.82,74.91,0,183.74,0,318S108.82,561,243.06,561,486.13,452.22,486.13,318,377.3,74.91,243.06,74.91ZM56.94,301h0c0-4.25,2.54-7.8,6.08-10.14q67.71-44.86,135.41,0c3.53,2.34,6.08,5.89,6.08,10.14h0c0,8.52-9.43,14.89-16.59,10.27q-57.19-36.81-114.39,0C66.36,315.91,56.94,309.54,56.94,301ZM243.07,529.55A155.85,155.85,0,0,1,87.22,373.71H398.91A155.84,155.84,0,0,1,243.07,529.55ZM410.81,311.29q-57.19-36.81-114.39,0c-7.16,4.62-16.59-1.75-16.59-10.27h0c0-4.25,2.55-7.8,6.08-10.14q67.71-44.86,135.41,0c3.54,2.34,6.08,5.89,6.08,10.14h0C427.4,309.54,418,315.91,410.81,311.29Z" transform="translate(0 -74.91)"/></svg>